Coordinates
version=1
nRows=17
nColumns=36
inDegrees=yes

Units are S.I. units (second, meters, Newtons, ...)
If the header above contains a line with 'inDegrees', this indicates whether rotational values are in degrees (yes) or radians (no).

endheader
time	pelvis_tilt	pelvis_list	pelvis_rotation	pelvis_tx	pelvis_ty	pelvis_tz	hip_flexion_r	hip_adduction_r	hip_rotation_r	knee_angle_r	knee_angle_r_beta	ankle_angle_r	subtalar_angle_r	mtp_angle_r	hip_flexion_l	hip_adduction_l	hip_rotation_l	knee_angle_l	knee_angle_l_beta	ankle_angle_l	subtalar_angle_l	mtp_angle_l	lumbar_extension	lumbar_bending	lumbar_rotation	arm_flex_r	arm_add_r	arm_rot_r	elbow_flex_r	pro_sup_r	arm_flex_l	arm_add_l	arm_rot_l	elbow_flex_l	pro_sup_l
     15.00000000	     -5.95408150	     -5.74398737	      0.61123812	      0.72751213	      1.01263810	      0.83211667	     27.17633543	      5.82339854	     -6.52765175	     15.59891868	      0.27225249	      3.63007688	     -4.41871561	     -7.49999987	     -1.69647627	     -7.90836984	     -8.38445775	     31.29413832	      0.54618575	      3.59796947	     -1.97078098	     -7.49999987	     -2.74687238	     12.48413999	     -2.91845928	      2.47845960	    -11.87224213	     -5.12498965	     13.58068829	     80.69254190	     10.09718333	     -8.47096490	    -10.16413362	     43.78245868	     74.33152165
     15.01666670	     -5.74607710	     -7.17723313	      1.07025296	      0.73110404	      1.01584270	      0.83435688	     26.53158078	      7.35535143	     -6.60245143	     16.85652026	      0.29420178	      4.46138051	     -6.09825214	     -7.49999987	     -0.30509245	    -10.12135256	     -7.66530493	     35.98624064	      0.62807838	     -3.48571326	     -4.17550112	     -7.49999987	     -2.42948086	     14.24349656	     -3.13691514	      2.34977388	    -12.30098033	     -4.42473061	     13.90413314	     80.31448887	      9.23628382	     -7.57096530	    -10.16361057	     42.42270859	     73.88772745
     15.03333330	     -5.27488617	     -8.56065568	      1.58314995	      0.73444679	      1.01807591	      0.83871264	     25.38421874	      8.88712845	     -6.89689325	     17.69282071	      0.30879798	      5.16530920	     -7.57535808	     -7.49999987	      1.29095372	    -12.28729350	     -6.46091790	     40.92731683	      0.71431643	    -11.67826325	     -6.56002773	     -7.49999987	     -2.37131200	     15.83591152	     -3.23168669	      2.18150350	    -12.63182515	     -4.38910347	     14.40792245	     80.44148927	      8.20195215	     -6.72789692	    -10.16151484	     41.16314937	     73.98271844
     15.05000000	     -5.04124735	     -9.74273681	      1.88758364	      0.73497679	      1.01895696	      0.84466283	     24.25294712	     10.32884921	     -7.24215532	     18.00990005	      0.31433205	      5.59091139	     -8.69768618	     -7.49999987	      3.54166387	    -14.16782034	     -4.93515710	     45.93536625	      0.80172338	    -19.57027662	     -8.68928196	     -7.49999987	     -2.18619765	     17.05573823	     -2.94575512	      1.90095807	    -12.86135183	     -4.23187060	     15.01794186	     80.52753597	      7.14310649	     -6.02111047	    -10.16271316	     39.48565287	     74.07234814
     15.06666670	     -4.63782175	    -10.64612079	      2.15049096	      0.73486635	      1.01877418	      0.85081474	     22.77136912	     11.53372688	     -7.69459022	     17.89980116	      0.31241047	      5.76298357	     -9.43532615	     -7.49999987	      5.85072247	    -15.64527933	     -3.27767817	     50.66105428	      0.88420220	    -25.71802954	    -10.21123811	     -7.49999987	     -2.44226912	     17.80453364	     -2.40538058	      1.81948382	    -12.92045999	     -4.12256213	     15.45131059	     80.51919460	      6.05303654	     -5.57621860	    -10.09966770	     38.44834541	     74.09530144
     15.08333330	     -4.75737368	    -11.00433672	      2.46575252	      0.73780148	      1.01789311	      0.85643981	     21.73478304	     12.13708871	     -8.08598847	     17.60132390	      0.30720105	      5.66295940	    -10.15415779	     -7.49999987	      8.91719555	    -16.27975100	     -1.47680674	     55.03624172	      0.96056363	    -29.75204730	    -11.60741304	     -7.49999987	     -2.01533961	     17.88480832	     -2.23225632	      1.53027158	    -12.81468643	     -3.94363301	     16.56602089	     80.39321291	      5.15045256	     -5.42379153	     -9.78129347	     36.28842738	     74.24952712
     15.10000000	     -4.61703625	    -11.12047354	      2.65328821	      0.74283249	      1.01823816	      0.86113380	     20.20252608	     12.60892129	     -8.19469197	     17.06247185	      0.29779631	      5.70860056	    -10.47673157	     -7.49999987	     11.69989064	    -16.54008059	     -0.17212202	     58.93758656	      1.02865494	    -31.41801281	    -12.96385374	     -7.49999987	     -2.04687458	     17.64406494	     -1.83202967	      1.43183672	    -12.63478855	     -3.87128557	     17.41963131	     78.96469921	      4.27956820	     -5.39447374	     -9.25969151	     34.35097796	     73.53584744
     15.11666670	     -4.42594948	    -11.01396215	      2.89993762	      0.74591301	      1.02022807	      0.86452289	     18.47423357	     12.83600534	     -8.34078608	     16.44881631	      0.28708600	      6.18451398	    -10.11325063	     -7.49999987	     14.44136886	    -16.39293199	      0.94455325	     62.28160323	      1.08701904	    -31.21299238	    -14.72113574	     -7.49999987	     -2.13013496	     17.19114688	     -1.54920376	      1.38102141	    -12.40599859	     -3.71332011	     18.25914640	     77.66943724	      3.53187097	     -5.49250580	     -8.42210473	     32.15115863	     73.02248031
     15.13333330	     -4.05509440	    -10.56863023	      2.95892906	      0.74608698	      1.02296396	      0.86738659	     16.41687153	     12.80154541	     -7.97762174	     15.71799510	      0.27433077	      6.76185460	     -9.66771023	     -7.49999987	     16.70591854	    -15.90048510	      1.54079841	     64.77478244	      1.13053323	    -29.32597225	    -16.64062023	     -7.49999987	     -2.53260866	     16.37203968	     -1.03786952	      1.48884418	    -12.15296154	     -3.41671794	     19.07409434	     76.26317234	      3.15278182	     -5.73107833	     -6.96896927	     29.71437178	     72.52204486
     15.15000000	     -3.50890629	     -9.96889687	      3.05309428	      0.74495298	      1.02506560	      0.86937791	     14.21083138	     12.58457513	     -7.56682493	     14.95363644	      0.26099019	      7.42932939	     -9.25512881	     -7.49999987	     18.52534694	    -15.26614542	      2.07403409	     66.41552480	      1.15916958	    -26.06088950	    -18.31667502	     -7.49999987	     -3.22129684	     15.42322211	     -1.01920539	      2.03501436	    -11.70476213	     -3.43879784	     19.66395927	     74.39601882	      2.47619498	     -5.87879717	     -6.67512302	     28.04609259	     71.14824933
     15.16666670	     -2.92437628	     -9.16091741	      2.93522785	      0.74274677	      1.02714864	      0.86982546	     12.04937114	     12.07051873	     -7.31087658	     14.26220508	      0.24892244	      8.51016668	     -8.16588233	     -7.49999987	     19.97393531	    -14.43165705	      2.44874413	     67.28193916	      1.17429137	    -22.19764417	    -19.74277157	     -7.49999987	     -4.11958570	     14.29687010	     -0.42611615	      2.45653322	    -11.53752713	     -2.93548981	     20.35889933	     73.51847537	      2.11794161	     -5.97496578	     -5.53283067	     26.12599628	     70.57968534
     15.18333330	     -2.25734817	     -8.35769913	      2.70105787	      0.73872443	      1.03086917	      0.86949138	      9.90672173	     11.54117145	     -6.91331987	     13.54847254	      0.23646545	      9.07320250	     -7.76652227	     -7.49999987	     21.19145909	    -13.57566741	      2.80666949	     67.58980647	      1.17966466	    -18.38941890	    -20.69054547	     -7.49999987	     -5.26147784	     13.29841747	     -0.41180928	      3.41093140	    -11.27258934	     -3.10495579	     21.08937593	     72.53199721	      1.26303852	     -5.88664607	     -5.58955665	     24.85130335	     69.75567423
     15.20000000	     -1.39280984	     -7.20176315	      2.15439578	      0.73320941	      1.03626344	      0.87003962	      7.62643187	     10.60487894	     -6.52588252	     12.92259304	      0.22554180	     10.01573118	     -6.69781075	     -7.49999987	     21.83494241	    -12.42966387	      2.54067792	     67.07613072	      1.17069933	    -14.96138621	    -21.12772290	     -7.49999987	     -6.79639017	     11.81072288	      0.74781695	      4.08210253	    -11.29414240	     -3.08902887	     21.68117332	     73.46107565	      1.12258384	     -5.91066377	     -4.30737528	     23.05995594	     70.27206992
     15.21666670	     -0.53022092	     -6.14423562	      1.64463705	      0.72724974	      1.04075971	      0.87116963	      5.45756875	      9.71870098	     -6.09655488	     12.25561804	      0.21390089	     10.59610595	     -5.94347979	     -7.49999987	     22.29512724	    -11.36404348	      2.04512262	     65.95262418	      1.15109044	    -12.03495172	    -21.03648634	     -7.49999987	     -8.41563820	     10.48806814	      1.46010138	      5.08379403	    -11.36780717	     -2.89313399	     22.45661214	     72.51927679	      0.75386607	     -5.86224737	     -4.27100320	     21.91314691	     69.32288846
     15.23333330	      0.22525152	     -5.13946785	      1.36505529	      0.72226810	      1.04337656	      0.87161635	      3.44326825	      8.77827628	     -5.98177521	     11.51477189	      0.20097068	     11.21010154	     -4.79451200	     -7.49999987	     22.61762637	    -10.30767265	      1.47672643	     64.10569784	      1.11885550	     -9.59122060	    -20.53972866	     -7.49999987	     -9.89722592	      9.25545380	      2.03077689	      6.07637746	    -11.57752504	     -2.43537400	     23.42553664	     72.10347156	      0.57320653	     -5.84455117	     -3.75786689	     20.81761808	     68.88057993
     15.25000000	      0.59759198	     -4.40966065	      0.92190117	      0.71801113	      1.04431090	      0.87180604	      1.84583340	      8.13374356	     -5.06588522	     10.73024600	      0.18727812	     10.99978889	     -4.97928005	     -7.49999987	     23.08305417	     -9.67821801	      0.65996194	     61.65839118	      1.07614194	     -7.86580600	    -20.13785988	     -7.49999987	    -10.89885223	      8.38723524	      2.59096588	      7.18509116	    -11.74576274	     -2.54650122	     24.30842870	     71.33345038	      0.23030506	     -5.71682292	     -3.81818994	     20.21077883	     68.21133579
     15.26666670	      1.25617185	     -3.51549268	      1.02996104	      0.71330111	      1.04513246	      0.87254544	     -0.03507305	      7.17643274	     -5.61864011	      9.99954855	      0.17452505	     11.94260285	     -3.33576271	     -7.49999987	     23.06740093	     -8.74887805	      0.13236815	     58.59319484	      1.02264417	     -5.98295150	    -19.11186185	     -7.49999987	    -12.10956829	      7.28904404	      3.05476228	      7.85077786	    -12.19156969	     -1.70064285	     25.71734988	     71.81361421	      0.37048949	     -5.73265457	     -2.43348561	     18.96929823	     68.55994946
